<?xml version="1.0" encoding="UTF-8" standalone="no"?>
<!-- Created with Inkscape (http://www.inkscape.org/) -->

<svg
   width="45mm"
   height="12.5mm"
   viewBox="0 0 45 12.5"
   version="1.1"
   id="svg1"
   xml:space="preserve"
   sodipodi:docname="logo.svg"
   inkscape:version="1.3.2 (091e20ef0f, 2023-11-25)"
   inkscape:export-filename="logo.png"
   inkscape:export-xdpi="96"
   inkscape:export-ydpi="96"
   xmlns:inkscape="http://www.inkscape.org/namespaces/inkscape"
   xmlns:sodipodi="http://sodipodi.sourceforge.net/DTD/sodipodi-0.dtd"
   xmlns="http://www.w3.org/2000/svg"
   xmlns:svg="http://www.w3.org/2000/svg"><sodipodi:namedview
     id="namedview1"
     pagecolor="#505050"
     bordercolor="#eeeeee"
     borderopacity="1"
     inkscape:showpageshadow="0"
     inkscape:pageopacity="0"
     inkscape:pagecheckerboard="0"
     inkscape:deskcolor="#505050"
     inkscape:document-units="mm"
     inkscape:zoom="3.527598"
     inkscape:cx="77.389771"
     inkscape:cy="85.894141"
     inkscape:window-width="1600"
     inkscape:window-height="898"
     inkscape:window-x="0"
     inkscape:window-y="0"
     inkscape:window-maximized="0"
     inkscape:current-layer="g1"
     showgrid="true"><inkscape:grid
       id="grid13"
       units="mm"
       originx="0"
       originy="0"
       spacingx="0.99999998"
       spacingy="1"
       empcolor="#0099e5"
       empopacity="0.30196078"
       color="#0099e5"
       opacity="0.14901961"
       empspacing="5"
       dotted="false"
       gridanglex="30"
       gridanglez="30"
       visible="true" /></sodipodi:namedview><defs
     id="defs1"><rect
       x="198.72234"
       y="517.31543"
       width="340.64099"
       height="255.47551"
       id="rect3" /><rect
       x="118.24066"
       y="255.02602"
       width="629.59265"
       height="319.82886"
       id="rect1" /><rect
       x="118.24066"
       y="255.02602"
       width="629.59265"
       height="319.82886"
       id="rect1-5" /><rect
       x="118.24066"
       y="255.02602"
       width="629.59265"
       height="319.82886"
       id="rect1-55" /><rect
       x="118.24066"
       y="255.02602"
       width="629.59265"
       height="319.82886"
       id="rect1-2" /><rect
       x="118.24066"
       y="255.02602"
       width="629.59265"
       height="319.82886"
       id="rect1-2-5" /><rect
       x="118.24066"
       y="255.02602"
       width="629.59265"
       height="319.82886"
       id="rect1-55-5" /><rect
       x="118.24066"
       y="255.02602"
       width="629.59265"
       height="319.82886"
       id="rect1-55-5-5" /><rect
       x="118.24066"
       y="255.02602"
       width="629.59265"
       height="319.82886"
       id="rect1-2-9" /><rect
       x="118.24066"
       y="255.02602"
       width="629.59265"
       height="319.82886"
       id="rect1-2-5-9" /></defs><g
     inkscape:label="Layer 1"
     inkscape:groupmode="layer"
     id="layer1"><path
       id="rect2-2"
       style="fill:#a52a2a;stroke-width:0.159549"
       d="M 13.776806,17.343768 24.97483,17.212393 23.262086,26.850443 12,27 Z"
       sodipodi:nodetypes="ccccc" /><circle
       style="fill:#a52a2a;stroke-width:0.175171"
       id="path34"
       cx="6.8410392"
       cy="6.297142"
       r="5.7957082" /><text
       xml:space="preserve"
       transform="scale(0.26458333)"
       id="text3"
       style="font-style:normal;font-variant:normal;font-weight:bold;font-stretch:normal;font-size:48px;font-family:'DejaVu Serif';-inkscape-font-specification:'DejaVu Serif Bold';white-space:pre;shape-inside:url(#rect3);display:inline;fill:#000000" /><g
       id="g1"
       transform="translate(0,0.23792273)"><path
         style="font-style:italic;font-weight:800;font-size:16.9753px;font-family:'SN Pro';-inkscape-font-specification:'SN Pro Ultra-Bold Italic';white-space:pre;fill:#ffffff"
         d="m 120.41307,270.43295 h 5.65278 c 0.84876,0 1.375,-0.50925 1.375,-1.37499 0,-0.59414 -0.42439,-0.95062 -1.22222,-0.95062 h -4.27778 l 0.39043,-2.39352 h 4.14197 c 0.83179,0 1.375,-0.52623 1.375,-1.375 0,-0.61111 -0.44135,-0.95061 -1.22222,-0.95061 h -3.92129 l 0.28858,-2.00309 h 4.56635 c 0.83179,0 1.375,-0.50926 1.375,-1.375 0,-0.59414 -0.42438,-0.95062 -1.22222,-0.95062 h -5.75462 c -0.95062,0 -1.52778,0.49229 -1.68056,1.4429 l -1.3071,8.25 c -0.16975,1.08642 0.33951,1.68055 1.4429,1.68055 z m 9.72684,0.15278 c 0.66204,0 1.00154,-0.23765 1.49383,-0.76389 l 1.61265,-1.7145 1.01852,1.59568 c 0.37346,0.59413 0.91667,0.88271 1.52778,0.88271 1.05246,0 1.68055,-0.96759 1.03549,-1.93518 l -1.62963,-2.42747 2.24074,-2.37654 c 0.79784,-0.84877 0.40741,-1.91821 -0.78086,-1.91821 -0.69599,0 -1.0355,0.22068 -1.51081,0.76389 l -1.37499,1.56173 -0.88272,-1.42593 c -0.39043,-0.61111 -0.83179,-0.89969 -1.52778,-0.89969 -1.06944,0 -1.66358,0.95062 -1.01852,1.91821 l 1.47686,2.24074 -2.4784,2.56327 c -0.81481,0.84876 -0.40741,1.93518 0.79784,1.93518 z m 12.83333,0.034 c 0.23766,0 0.57716,-0.034 0.88272,-0.11882 0.57716,-0.11883 1.01852,-0.44136 1.01852,-1.4429 0,-0.59414 -0.20371,-0.86575 -0.69599,-0.86575 -0.25463,0 -0.33951,0.0679 -0.67901,0.0679 -0.71297,0 -0.98457,-0.35649 -0.81482,-1.32408 l 0.42438,-2.69907 h 1.47686 c 0.81481,0 1.30709,-0.52623 1.30709,-1.25617 0,-0.59414 -0.44135,-0.89969 -1.17129,-0.89969 h -1.25617 l 0.15277,-0.98457 c 0.15278,-1.01852 -0.32253,-1.59568 -1.30709,-1.59568 -0.8997,0 -1.44291,0.44136 -1.57871,1.34105 l -0.18673,1.2392 h -0.4753 c -0.8997,0 -1.4429,0.44135 -1.4429,1.23919 0,0.59414 0.42438,0.91667 1.15432,0.91667 h 0.4074 l -0.44135,2.83488 c -0.33951,2.07098 0.69598,3.54783 3.2253,3.54783 z m 4.20987,-0.034 c 1.00155,0 1.56173,-0.45833 1.71451,-1.39197 l 0.44136,-2.8179 c 0.18672,-1.20525 0.62808,-1.76543 1.8503,-1.88426 l 0.61111,-0.0679 c 0.9676,-0.0849 1.42593,-0.52624 1.42593,-1.5787 0,-0.67902 -0.28858,-0.95062 -0.98457,-0.93365 -1.13734,0.0339 -2.07098,0.62809 -2.58024,1.62963 0.16975,-1.01852 -0.27161,-1.61265 -1.18827,-1.61265 -0.91667,0 -1.47686,0.47531 -1.62963,1.39197 l -0.88272,5.6358 c -0.16975,1.0355 0.28858,1.62963 1.22222,1.62963 z m 8.65744,0.034 c 0.98456,0 1.86728,-0.4074 2.42746,-1.40895 -0.10185,0.93364 0.33951,1.375 1.12037,1.375 0.89969,0 1.4429,-0.49228 1.57871,-1.4429 l 0.50926,-3.17438 c 0.3395,-2.20679 -0.59414,-4.07407 -3.63272,-4.07407 -0.88271,0 -1.68055,0.1358 -2.6821,0.47531 -1.73148,0.59413 -0.91666,2.54629 0.52624,2.03703 0.71296,-0.28858 1.08642,-0.37345 1.74845,-0.37345 1.05247,0 1.52778,0.45833 1.39198,1.25617 l -0.0849,0.47531 -1.08642,-0.25463 c -2.91975,-0.64506 -4.61728,0.69598 -4.61728,2.46142 0,1.40895 1.18827,2.64814 2.80093,2.64814 z m -0.0679,-2.83487 c 0,-0.67901 0.54321,-1.22222 1.88426,-0.93364 l 0.88272,0.16975 -0.034,0.22068 c -0.1358,0.88271 -0.76389,1.47685 -1.64661,1.47685 -0.64506,0 -1.08642,-0.35648 -1.08642,-0.93364 z m 13.44445,2.64814 h 5.65278 c 0.84876,0 1.375,-0.50925 1.375,-1.37499 0,-0.59414 -0.42439,-0.95062 -1.22222,-0.95062 h -4.27778 l 0.39043,-2.39352 h 4.14197 c 0.83179,0 1.375,-0.52623 1.375,-1.375 0,-0.61111 -0.44135,-0.95061 -1.22222,-0.95061 h -3.92129 l 0.28858,-2.00309 h 4.56635 c 0.83179,0 1.375,-0.50926 1.375,-1.375 0,-0.59414 -0.42438,-0.95062 -1.22222,-0.95062 h -5.75463 c -0.95061,0 -1.52777,0.49229 -1.68055,1.4429 l -1.3071,8.25 c -0.16975,1.08642 0.33951,1.68055 1.4429,1.68055 z m 13.08796,0.18673 c 0.66204,0 1.47685,-0.15277 2.00309,-0.39043 1.47685,-0.59413 0.74691,-2.49537 -0.32253,-2.08796 -0.45834,0.18673 -0.91667,0.2716 -1.22223,0.2716 -1.27314,0 -1.7824,-0.69598 -1.7824,-1.73148 0,-1.25617 0.59413,-2.58024 2.25771,-2.58024 0.40741,0 0.79784,0.0849 1.27315,0.28858 1.20525,0.45833 2.03704,-1.64661 0.44136,-2.15587 -0.59414,-0.2037 -1.1713,-0.3395 -1.95216,-0.3395 -3.37809,0 -5.00772,2.32561 -5.00772,4.82098 0,2.3426 1.45988,3.90432 4.31173,3.90432 z m 8.1142,0 c 0.66204,0 1.47685,-0.15277 2.00309,-0.39043 1.47685,-0.59413 0.74691,-2.49537 -0.32253,-2.08796 -0.45834,0.18673 -0.91667,0.2716 -1.22223,0.2716 -1.27314,0 -1.7824,-0.69598 -1.7824,-1.73148 0,-1.25617 0.59413,-2.58024 2.25771,-2.58024 0.40741,0 0.79784,0.0849 1.27315,0.28858 1.20525,0.45833 2.03704,-1.64661 0.44136,-2.15587 -0.59414,-0.2037 -1.1713,-0.3395 -1.95216,-0.3395 -3.37809,0 -5.00771,2.32561 -5.00771,4.82098 0,2.3426 1.45987,3.90432 4.31172,3.90432 z m 8.4707,-0.98456 c 0.1358,-0.72994 -0.20371,-1.29013 -1.1713,-1.39198 -0.30556,-0.034 -0.30556,-0.59413 -0.25463,-0.91667 l 1.06944,-6.73919 c 0.13581,-0.95062 -0.28858,-1.5787 -1.20524,-1.7145 -0.93364,-0.15278 -1.49383,0.32253 -1.64661,1.25617 -0.42438,2.69907 -0.61111,3.97222 -1.05246,6.70524 -0.45834,2.75 0.91666,3.61574 2.00308,3.71759 0.71296,0.10185 2.08796,0.0509 2.25772,-0.91666 z m 5.4321,0.98456 c 0.84876,0 1.79938,-0.16975 2.59722,-0.54321 1.32407,-0.56018 0.91666,-2.56327 -0.56019,-2.00308 -0.49228,0.23765 -1.20525,0.37345 -1.73148,0.37345 -1.2392,0 -2.05401,-0.61111 -2.12191,-1.6466 1.66358,0.15278 3.27623,0.16975 4.82098,-0.0509 0.39043,-0.0679 0.89969,-0.18672 0.9676,-0.74691 0.23765,-2.07099 -0.74692,-4.00617 -3.66667,-4.09105 -2.69907,-0.0849 -4.70216,1.95216 -4.73611,4.82099 -0.034,2.24074 1.76543,3.88734 4.43056,3.88734 z m -1.62963,-5.17746 0.017,-0.10186 c 0.18673,-0.95061 0.91667,-1.52777 1.93519,-1.47685 1.03549,0.0679 1.47685,0.71297 1.40895,1.57871 -1.05247,0.15277 -2.22377,0.0679 -3.36111,0 z m 10.08333,5.17746 c 2.32561,0 3.87037,-1.03549 3.87037,-2.93672 0,-1.1713 -0.74692,-1.95216 -2.29167,-2.20679 l -1.5108,-0.25463 c -0.44136,-0.0849 -0.59414,-0.28858 -0.59414,-0.54321 0,-0.47531 0.44136,-0.81482 1.39198,-0.81482 0.56018,0 1.22222,0.15278 1.76543,0.37346 1.375,0.50926 2.12191,-1.3071 0.67901,-1.88426 -0.69599,-0.30555 -1.59568,-0.45833 -2.30864,-0.45833 -2.71605,0 -4.10802,1.39197 -4.10802,2.9537 0,1.15432 0.76389,1.96914 2.15586,2.18981 l 1.5108,0.25463 c 0.52624,0.10186 0.72994,0.27161 0.72994,0.59414 0,0.42438 -0.40741,0.76389 -1.3071,0.76389 -0.71296,0 -1.47685,-0.16976 -2.17284,-0.47531 -1.37499,-0.56019 -2.10493,1.39197 -0.64506,1.95216 0.72994,0.30555 1.78241,0.49228 2.83488,0.49228 z m 6.17902,-0.034 c 0.98457,0 1.52778,-0.49228 1.69753,-1.4429 l 0.86574,-5.51697 c 0.16975,-1.06944 -0.2716,-1.69753 -1.18827,-1.69753 -0.96759,0 -1.52778,0.49228 -1.68055,1.4429 l -0.88272,5.51697 c -0.16975,1.06945 0.28858,1.69753 1.18827,1.69753 z m 0.18673,-11.11882 c 0,0.88272 0.69599,1.59568 1.59568,1.59568 0.89969,0 1.59568,-0.71296 1.59568,-1.59568 0,-0.89969 -0.69599,-1.61265 -1.59568,-1.61265 -0.89969,0 -1.59568,0.71296 -1.59568,1.61265 z m 6.02623,11.15277 c 0.98457,0 1.86728,-0.4074 2.42747,-1.40895 -0.10186,0.93364 0.3395,1.375 1.12037,1.375 0.89969,0 1.4429,-0.49228 1.5787,-1.4429 l 0.50926,-3.17438 c 0.3395,-2.20679 -0.59414,-4.07407 -3.63272,-4.07407 -0.88271,0 -1.68055,0.1358 -2.68209,0.47531 -1.73148,0.59413 -0.91667,2.54629 0.52623,2.03703 0.71296,-0.28858 1.08642,-0.37345 1.74846,-0.37345 1.05247,0 1.52777,0.45833 1.39197,1.25617 l -0.0849,0.47531 -1.08641,-0.25463 c -2.91976,-0.64506 -4.61729,0.69598 -4.61729,2.46142 0,1.40895 1.18827,2.64814 2.80093,2.64814 z m -0.0679,-2.83487 c 0,-0.67901 0.54321,-1.22222 1.88426,-0.93364 l 0.88271,0.16975 -0.034,0.22068 c -0.1358,0.88271 -0.76389,1.47685 -1.6466,1.47685 -0.64507,0 -1.08642,-0.35648 -1.08642,-0.93364 z m 8.13118,2.80092 c 0.98457,0 1.56173,-0.45833 1.69753,-1.39197 l 0.50926,-3.20833 c 0.18673,-1.1713 0.74691,-1.85031 1.59567,-1.85031 0.67902,0 0.95062,0.47531 0.79784,1.39197 l -0.52623,3.42901 c -0.16975,1.0355 0.28858,1.62963 1.2392,1.62963 0.93364,0 1.49382,-0.47531 1.62963,-1.39197 l 0.50925,-3.20833 c 0.18673,-1.1713 0.74692,-1.85031 1.59568,-1.85031 0.67901,0 0.95062,0.49228 0.79784,1.39197 l -0.52623,3.42901 c -0.15278,1.0355 0.28858,1.62963 1.25617,1.62963 0.91667,0 1.47685,-0.47531 1.61265,-1.39197 l 0.59414,-3.70062 c 0.39043,-2.51234 -0.69599,-3.59876 -2.4784,-3.59876 -1.20524,0 -2.22376,0.50926 -2.85185,1.52778 -0.4074,-1.01852 -1.17129,-1.52778 -2.29166,-1.52778 -0.95062,0 -1.93519,0.40741 -2.59722,1.375 0.034,-0.86574 -0.40741,-1.34105 -1.2392,-1.34105 -0.91667,0 -1.47685,0.47531 -1.61265,1.39197 l -0.89969,5.6358 c -0.16976,1.0355 0.28858,1.62963 1.18827,1.62963 z"
         id="text1-9"
         transform="matrix(0.20158133,0,0,0.30851925,-9.5152913,-77.978532)"
         aria-label="Extra Ecclesiam " /><path
         style="font-style:italic;font-weight:800;font-size:16.9753px;font-family:'SN Pro';-inkscape-font-specification:'SN Pro Ultra-Bold Italic';white-space:pre;fill:#ffffff"
         d="m 120.15844,270.58573 c 0.93364,0.034 1.35803,-0.39043 1.52778,-1.375 l 0.96759,-6.07715 3.93827,6.50154 c 0.40741,0.66203 0.81482,0.95061 1.59568,0.95061 0.72994,0 1.15432,-0.44136 1.29012,-1.29012 l 1.42593,-8.6574 c 0.16975,-1.01852 -0.23766,-1.69753 -1.15432,-1.73148 -0.93364,-0.034 -1.42593,0.44135 -1.59568,1.375 l -0.91667,5.51697 -3.85339,-5.95833 c -0.42438,-0.64506 -0.78086,-0.93364 -1.54475,-0.93364 -0.72994,0 -1.32408,0.42438 -1.47685,1.27314 l -1.42593,8.75926 c -0.18673,1.05247 0.32253,1.61265 1.22222,1.6466 z m 14.14044,0.034 c 1.18827,0 2.15586,-0.47531 2.78395,-1.5108 -0.15278,1.01852 0.28858,1.47685 1.20524,1.47685 0.89969,0 1.4429,-0.45833 1.57871,-1.35802 l 0.89969,-5.7037 c 0.15277,-1.00155 -0.32253,-1.59568 -1.3071,-1.59568 -0.89969,0 -1.42593,0.44136 -1.5787,1.35802 l -0.50926,3.24229 c -0.18673,1.15432 -0.83179,1.8503 -1.74846,1.8503 -0.76389,0 -1.00154,-0.47531 -0.86574,-1.40895 l 0.54321,-3.44598 c 0.15278,-1.01852 -0.32253,-1.59568 -1.3071,-1.59568 -0.89969,0 -1.4429,0.44136 -1.5787,1.35802 l -0.59414,3.73457 c -0.4074,2.51234 0.71297,3.59876 2.4784,3.59876 z m 12.00153,-0.98456 c 0.1358,-0.72994 -0.20371,-1.29013 -1.1713,-1.39198 -0.30555,-0.034 -0.30555,-0.59413 -0.25463,-0.91667 l 1.06945,-6.73919 c 0.1358,-0.95062 -0.28858,-1.5787 -1.20525,-1.7145 -0.93364,-0.15278 -1.49383,0.32253 -1.6466,1.25617 -0.42439,2.69907 -0.61112,3.97222 -1.05247,6.70524 -0.45834,2.75 0.91666,3.61574 2.00308,3.71759 0.71296,0.10185 2.08796,0.0509 2.25772,-0.91666 z m 5.58488,0 c 0.1358,-0.72994 -0.20371,-1.29013 -1.1713,-1.39198 -0.30555,-0.034 -0.30555,-0.59413 -0.25463,-0.91667 l 1.06945,-6.73919 c 0.1358,-0.95062 -0.28858,-1.5787 -1.20525,-1.7145 -0.93364,-0.15278 -1.49383,0.32253 -1.6466,1.25617 -0.42439,2.69907 -0.61111,3.97222 -1.05247,6.70524 -0.45834,2.75 0.91666,3.61574 2.00308,3.71759 0.71297,0.10185 2.08796,0.0509 2.25772,-0.91666 z m 3.66667,0.98456 c 0.98457,0 1.86728,-0.4074 2.42747,-1.40895 -0.10185,0.93364 0.3395,1.375 1.12037,1.375 0.89969,0 1.4429,-0.49228 1.5787,-1.4429 l 0.50926,-3.17438 c 0.33951,-2.20679 -0.59414,-4.07407 -3.63271,-4.07407 -0.88272,0 -1.68056,0.1358 -2.6821,0.47531 -1.73148,0.59413 -0.91667,2.54629 0.52623,2.03703 0.71296,-0.28858 1.08642,-0.37345 1.74846,-0.37345 1.05247,0 1.52778,0.45833 1.39197,1.25617 l -0.0849,0.47531 -1.08642,-0.25463 c -2.91975,-0.64506 -4.61728,0.69598 -4.61728,2.46142 0,1.40895 1.18827,2.64814 2.80092,2.64814 z m -0.0679,-2.83487 c 0,-0.67901 0.54321,-1.22222 1.88426,-0.93364 l 0.88271,0.16975 -0.0339,0.22068 c -0.1358,0.88271 -0.76389,1.47685 -1.6466,1.47685 -0.64506,0 -1.08642,-0.35648 -1.08642,-0.93364 z m 16.31328,2.83487 c 2.80092,0 5.21141,-1.29012 5.21141,-4.00617 0,-1.375 -1.05247,-2.39352 -2.83487,-2.8179 l -1.93519,-0.45833 c -0.83179,-0.2037 -1.22222,-0.30556 -1.22222,-0.86574 0,-0.71296 0.66204,-1.2392 1.93519,-1.1713 0.78086,0.034 1.7145,0.23766 2.42746,0.56019 1.93519,0.79784 2.5463,-1.42593 1.2392,-2.12191 -1.15432,-0.62809 -2.41049,-0.86574 -3.51389,-0.86574 -2.68209,0 -4.93981,1.4429 -4.93981,3.97222 0,1.54475 1.06945,2.44444 2.6821,2.8179 l 1.95216,0.45833 c 0.95062,0.22068 1.35802,0.28858 1.35802,0.84876 0,0.67902 -0.74691,1.1713 -2.07098,1.1713 -0.91667,0 -2.03704,-0.2037 -3.05556,-0.69599 -1.62963,-0.78086 -2.54629,1.54475 -1.06944,2.29167 1.13734,0.61111 2.51234,0.88271 3.83642,0.88271 z m 8.94599,0 c 0.98457,0 1.86728,-0.4074 2.42747,-1.40895 -0.10186,0.93364 0.3395,1.375 1.12037,1.375 0.89969,0 1.4429,-0.49228 1.5787,-1.4429 l 0.50926,-3.17438 c 0.3395,-2.20679 -0.59414,-4.07407 -3.63272,-4.07407 -0.88271,0 -1.68055,0.1358 -2.68209,0.47531 -1.73148,0.59413 -0.91667,2.54629 0.52623,2.03703 0.71296,-0.28858 1.08642,-0.37345 1.74846,-0.37345 1.05246,0 1.52777,0.45833 1.39197,1.25617 l -0.0849,0.47531 -1.08641,-0.25463 c -2.91976,-0.64506 -4.61729,0.69598 -4.61729,2.46142 0,1.40895 1.18827,2.64814 2.80093,2.64814 z m -0.0679,-2.83487 c 0,-0.67901 0.54321,-1.22222 1.88426,-0.93364 l 0.88271,0.16975 -0.034,0.22068 c -0.1358,0.88271 -0.76389,1.47685 -1.6466,1.47685 -0.64507,0 -1.08642,-0.35648 -1.08642,-0.93364 z m 11.50926,1.85031 c 0.1358,-0.72994 -0.2037,-1.29013 -1.17129,-1.39198 -0.30556,-0.034 -0.30556,-0.59413 -0.25463,-0.91667 l 1.06944,-6.73919 c 0.1358,-0.95062 -0.28858,-1.5787 -1.20525,-1.7145 -0.93364,-0.15278 -1.49382,0.32253 -1.6466,1.25617 -0.42438,2.69907 -0.61111,3.97222 -1.05247,6.70524 -0.45833,2.75 0.91667,3.61574 2.00309,3.71759 0.71296,0.10185 2.08796,0.0509 2.25771,-0.91666 z m 3.73458,0.98456 c 1.18827,0 2.15586,-0.47531 2.78395,-1.5108 -0.15278,1.01852 0.28858,1.47685 1.20524,1.47685 0.8997,0 1.44291,-0.45833 1.57871,-1.35802 l 0.89969,-5.7037 c 0.15278,-1.00155 -0.32253,-1.59568 -1.3071,-1.59568 -0.89969,0 -1.42592,0.44136 -1.5787,1.35802 l -0.50926,3.24229 c -0.18673,1.15432 -0.83179,1.8503 -1.74846,1.8503 -0.76389,0 -1.00154,-0.47531 -0.86574,-1.40895 l 0.54321,-3.44598 c 0.15278,-1.01852 -0.32253,-1.59568 -1.3071,-1.59568 -0.89969,0 -1.4429,0.44136 -1.5787,1.35802 l -0.59413,3.73457 c -0.40741,2.51234 0.71296,3.59876 2.47839,3.59876 z m 10.81326,0 c 2.32561,0 3.87037,-1.03549 3.87037,-2.93672 0,-1.1713 -0.74692,-1.95216 -2.29167,-2.20679 l -1.5108,-0.25463 c -0.44136,-0.0849 -0.59414,-0.28858 -0.59414,-0.54321 0,-0.47531 0.44136,-0.81482 1.39198,-0.81482 0.56018,0 1.22222,0.15278 1.76543,0.37346 1.375,0.50926 2.12191,-1.3071 0.67901,-1.88426 -0.69599,-0.30555 -1.59568,-0.45833 -2.30864,-0.45833 -2.71605,0 -4.10802,1.39197 -4.10802,2.9537 0,1.15432 0.76389,1.96914 2.15586,2.18981 l 1.5108,0.25463 c 0.52624,0.10186 0.72994,0.27161 0.72994,0.59414 0,0.42438 -0.40741,0.76389 -1.3071,0.76389 -0.71296,0 -1.47685,-0.16976 -2.17284,-0.47531 -1.37499,-0.56019 -2.10493,1.39197 -0.64506,1.95216 0.72994,0.30555 1.78241,0.49228 2.83488,0.49228 z"
         id="text1-9-4"
         transform="matrix(0.20158133,0,0,0.30851925,-9.8839533,-73.249476)"
         aria-label="Nulla Salus" /><text
         xml:space="preserve"
         transform="matrix(0.20158133,0,0,0.30851925,-3.5163753,-44.36703)"
         id="text1-9-8"
         style="font-size:16.9753px;white-space:pre;shape-inside:url(#rect1-2-9);display:inline;fill:#ffffff;fill-opacity:1"><tspan
           x="118.24023"
           y="270.43295"
           id="tspan6"><tspan
             style="font-style:italic;font-weight:800;font-family:'SN Pro';-inkscape-font-specification:'SN Pro Ultra-Bold Italic'"
             id="tspan5">Extra Ecclesiam </tspan></tspan></text><text
         xml:space="preserve"
         transform="matrix(0.20158133,0,0,0.30851925,-3.8850373,-39.637974)"
         id="text1-9-4-0"
         style="font-size:16.9753px;white-space:pre;shape-inside:url(#rect1-2-5-9);display:inline;fill:#ffffff;fill-opacity:1"><tspan
           x="118.24023"
           y="270.43295"
           id="tspan18"><tspan
             style="font-style:italic;font-weight:800;font-family:'SN Pro';-inkscape-font-specification:'SN Pro Ultra-Bold Italic'"
             id="tspan7">Nulla Salus</tspan></tspan></text></g><text
       xml:space="preserve"
       transform="matrix(0.20158133,0,0,0.30851925,-7.7332171,-56.806193)"
       id="text1-0"
       style="font-size:30.0872px;white-space:pre;shape-inside:url(#rect1-55);display:inline;fill:#ffffff;fill-opacity:1"><tspan
         x="118.24023"
         y="281.64551"
         id="tspan22"><tspan
           style="font-style:italic;font-weight:bold;font-family:Sans;-inkscape-font-specification:'Sans Bold Italic'"
           id="tspan19">E</tspan><tspan
           style="font-style:italic;font-weight:bold;font-family:Sans;-inkscape-font-specification:'Sans Bold Italic'"
           id="tspan20">τ</tspan><tspan
           style="font-style:italic;font-weight:bold;font-family:Sans;-inkscape-font-specification:'Sans Bold Italic'"
           id="tspan21">xtra Ecclesiam Nulla Salus</tspan></tspan></text><text
       xml:space="preserve"
       transform="matrix(0.20158133,0,0,0.30851925,-19.212099,-78.232587)"
       id="text1-0-0"
       style="font-size:30.0872px;white-space:pre;shape-inside:url(#rect1-55-5);display:inline;fill:#ffffff;fill-opacity:1"><tspan
         x="118.24023"
         y="281.64551"
         id="tspan24"><tspan
           style="font-style:italic;font-weight:bold;font-family:'DejaVu Serif';-inkscape-font-specification:'DejaVu Serif Bold Italic'"
           id="tspan23">τ</tspan></tspan></text><text
       xml:space="preserve"
       transform="matrix(0.29188353,0,0,0.27620549,-31.203086,-54.109773)"
       id="text1-0-0-0"
       style="font-size:30.0872px;white-space:pre;shape-inside:url(#rect1-55-5-5);display:inline;fill:#ffffff;fill-opacity:1"><tspan
         x="118.24023"
         y="282.79588"
         id="tspan26"><tspan
           style="font-family:'TeX Gyre Schola';-inkscape-font-specification:'TeX Gyre Schola'"
           id="tspan25">Τ</tspan></tspan></text><text
       xml:space="preserve"
       transform="matrix(0.38307035,0,0,0.38307035,-25.451945,-52.157842)"
       id="text1-8"
       style="font-size:10.6667px;white-space:pre;shape-inside:url(#rect1-5);display:inline;fill:#ffffff;fill-opacity:1"><tspan
         x="118.24023"
         y="264.46292"
         id="tspan28"><tspan
           style="font-style:oblique;font-stretch:semi-condensed;font-family:'DejaVu Sans';-inkscape-font-specification:'DejaVu Sans Oblique Semi-Condensed'"
           id="tspan27">The Faith of Jesus-Christ necessary for Salvation</tspan></tspan></text><g
       transform="matrix(0.03313582,0,0,-0.03313582,39.122766,-3.4719161)"
       id="g34"
       style="fill:#ffffff;fill-opacity:1">
	<g
   transform="matrix(0.24,0,0,0.24,0.8,16.8)"
   id="g33"
   style="fill:#ffffff;fill-opacity:1">
		<path
   d="M 1794,2006.1 H 1001.3 V 2435 h -194 l -18,-16 18,-412.9 H 14.7 l -18,-16 18,-178 H 807.4 V -54 l 176,-16 18,16 v 1866.2 l 774.7,-16 18,16 -0.1,193.9"
   id="path1"
   style="fill:#ffffff;fill-opacity:1" />
		<path
   d="M 1776,1990.1 H 983.3 V 2419 h -194 V 1990.1 H -3.3 V 1796.2 H 789.4 V -70 h 194 V 1796.2 H 1776 v 193.9"
   id="path2"
   style="fill:#ffffff;fill-opacity:1" />
		<path
   d="m 889.9,1807.2 c 12.1,-9.7 34.8,-8 40.4,-29.2 -5.2,3.2 -16,6 -18,3.6 9.6,-6.8 33.6,-19.7 27.6,-33.8 -4,5.5 -10.8,9.1 -14,9.8 5.2,-12 13.2,-22.4 29.2,-21.6 -2,-6.8 -19.6,-6.8 -25.6,-2.4 4,-16 15.2,-30.4 33.6,-26.8 -2.8,-10 -28.4,-10.4 -34,-5.2 5.6,-9.6 18,-27.3 31.6,-25.4 -19.6,-12.2 -53.1,24.6 -54,15 17.4,-7.2 24.6,-24 45,-27 20.4,-3 21.5,24.4 43.2,31.2 30.6,9.6 66.5,8.4 100.1,0 11.4,-1.2 56.3,28.2 89.3,34.2 33,6 70.7,1.8 75.5,7.8 4.8,6 24.2,28.6 53,37.4 28.8,8.8 63.3,20.8 82.5,30.4 19.2,9.6 110.9,58.2 116.9,62.9 6.4,13.2 6.5,30.1 12.5,38.9 6,8.8 23.1,21.7 29,27.7 6,6 26.9,10.5 32.9,22.6 8.4,-4.4 0.7,-18.6 -2.6,-21.8 -3.2,-3.2 -14.4,-11.6 -14,-14 0.4,-2.4 4,-8 10,-7.2 6,0.8 22,7.2 31.2,11.2 9.2,4 29.2,14 33.2,15.6 4,1.6 14,7.6 17.6,2 3.6,-5.6 -4.6,-9.4 -11.8,-13.4 -7.2,-4 -24.7,-14.2 -30,-17.2 -5.2,-3 -16.6,-15.4 4.4,-8.4 12.4,4.1 25.4,11 35,14.2 9.6,3.2 22.1,10.9 27.7,6.9 5.6,-4 -4.5,-12.5 -21.3,-20.5 -16.8,-8 -38,-18.3 -40.4,-19.6 -3.2,-1.8 -8.2,-6.8 -2.4,-5.4 5.8,1.4 44.6,15.2 49.2,16.6 4.6,1.4 17.2,7.5 18.4,-0.6 1,-6.6 -15.2,-11.4 -19.4,-13.6 -4.2,-2.2 -41.6,-17.6 -44.6,-19 -3,-1.4 -6.8,-5.9 -2,-5.8 9.6,0.2 27.5,0.5 44.5,0.8 17,0.2 7.2,-9.5 -2.8,-10.5 -10,-1 -34.4,-3.6 -38.6,-3.6 -6,-0.1 -14.4,-3.2 -24.8,-6.4 -10.4,-3.2 -33.1,-16.1 -53.8,-14.2 -10.2,-3.6 -63.7,-51.1 -78.7,-61.9 -15,-10.8 -64.7,-48 -82.1,-56.3 -18.7,-9 -39,-8.4 -52.2,-18 -13.2,-9.6 -43.8,-20.4 -65.3,-27 -21.6,-6.6 -48.6,-28.8 -71.3,-39.6 -22.8,-10.8 -112.7,-37.2 -136.1,-45.6 0,-7.2 -4.2,-33 -13.2,-52.2 -0.6,-12 -7.8,-65.9 -8.4,-104.9 -0.6,-39 -27.6,-106.7 -36,-139.1 2.4,-18.6 13.2,-64.8 10.2,-94.7 -33.6,10.2 -106.7,-43.2 -138.5,-56.3 -31.8,-13.2 -52.2,-21.6 -74.9,-18 -22.8,3.6 -41.2,7.8 -67,6.6 0.6,23.4 8.9,40.2 10.1,49.8 1.2,9.6 -7.2,22.8 0,43.8 7.2,21 10.2,52.2 9,67.7 -1.2,15.6 -15.6,78.5 -19.2,101.9 -3.6,23.4 -7.8,81.5 -10.2,100.1 -10.2,16.2 -34.2,68.9 -38.1,85.7 -11.1,10.5 -15.3,13.8 -15.3,13.8 -15.6,6 -25.8,19.8 -32.4,21.6 -6.6,1.8 -41.4,6 -74.3,30.6 -42,9 -97.7,42 -97.7,42 -7.2,-1.8 -18,4.8 -26.4,15 -13.8,10.8 -55.2,33 -83.9,60.6 -28.8,27.6 -106.6,99.2 -131,105.2 -15.3,-3.6 -43.1,0.9 -56.8,7.9 -11.7,6 -44,11.2 -52.8,12.4 -8.8,1.2 -16.1,3.3 -18,10 -2,7 17.2,-0.4 26.8,0 9.6,0.4 9.2,-2.1 20,1.4 10.8,3.5 -7.3,8 -19.2,15.2 -12,7.2 -26,14.2 -33.2,21.4 -7.2,7.2 -13.1,10.4 -13.6,14.4 -0.6,4.2 -1,11.1 8.4,6.8 9.6,-4.4 21.2,-12.8 30.4,-19.2 9.2,-6.4 20.8,-9.3 26.4,-12.2 4.6,-2.3 6.8,2.9 2.8,6.1 -4,3.2 -19.9,12.1 -25,15.3 -4.5,2.8 -35.3,22 -39.6,25 -4.3,3 -9.6,21.5 10.9,11 21.1,-10.8 26.4,-15.2 33.3,-18.8 6.9,-3.6 26.4,-15.6 31.2,-18.3 5.1,-2.9 6.4,-0.2 5.3,2.4 -2.4,5.5 -25.2,18.7 -27.2,20.7 -2,2 -16.6,10.8 -22.2,15.2 -5.6,4.4 -3,13.5 8.9,7.5 9.5,-4.8 28.1,-15.1 41.3,-23.5 13.2,-8.4 18.8,-12 23.2,-12.8 5.2,-1 8.6,1 4.2,9 -4.4,8 -15.4,9.4 -18.6,18 -1.7,4.6 -8,18.2 2,20.2 5.2,-8.8 20.4,-16.4 28.4,-24.8 8,-8.4 20.2,-11.6 27.6,-22.8 6.9,-10.4 20.3,-24.5 19.9,-40.1 11.2,-10.8 94.4,-55.1 122,-69.8 27.6,-14.8 52.2,-19.2 77.3,-30 25.2,-10.8 55.1,-39.6 73.8,-57.1 1.8,0 36.4,-1.4 53.9,-7.1 31.8,-10.2 52.8,-28.8 87.5,-46.2 28.2,1.8 66,0.6 89.9,-15 6,0 -11.1,14.4 -23.1,18.3 -12,3.9 -6,15 -6,15 0,0 -11.7,-14.4 -17.4,-15 4.2,0 5.1,24.6 5.1,24.6 0,0 -6.3,-14.1 -13.2,-12.3 3,2.1 -4.5,11.7 -4.5,11.7 0,0 -15.6,-1.2 -21.6,3 4.5,-0.3 21,13.2 15.6,15.6 -9.3,-2.4 -17.7,0.9 -21.6,5.7 12,-0.3 5.1,13.8 4.2,20.4 -0.9,6.6 11.7,3 11.7,10.8 -4.8,3.3 -3.3,13.2 -3.3,13.2 0,0 4.8,-4.5 9.9,-3.6 4.2,13.2 -7.8,28.2 6,39.6 1.8,-6.6 10.3,-10.1 10.2,-4.2 -0.1,3.4 -8.2,23.8 15.2,34.6 -1.2,-6.4 -1.6,-6.8 2.8,-6.8 4.4,0 16.4,23.2 44,25.2 -1.6,-4.4 3.6,-3.8 3.6,-3.8 0,0 24.4,17 48.8,8.6 -3.2,-3.6 7.2,-8.6 7.2,-8.6 0,0 46.8,9.4 57.1,-8.2 -8.4,2.8 -18.4,-1.6 -16,-5.2 3.6,-3.8 13.2,0.6 15.6,-3.8 2.4,-4.4 6.8,-4.4 10.6,-3.2 1.2,-2.6 -4.4,-4 -4.4,-4 0,0 -1,-6.2 2.6,-6.2 3.6,0 13.4,6.6 13.4,6.6 l -11.6,-12.8 c 0,0 8,-2.2 4,-7.8 -4,-5.6 0.6,-9.8 0.6,-9.8 l -8.4,3 c 0,-0.2 -5.8,-7.4 -2.8,-9.8"
   id="path3"
   style="fill:#ffffff;fill-opacity:1" />
		<path
   d="M 1012.2,938.3 C 1017,873.6 1005,792 997.8,716.5 c -7.2,-75.5 -18,-124.7 -18,-136.7 0,-12 19.1,-66.9 16.7,-101.8 -3.3,-48.4 -22.3,-131.7 -30.3,-158 -12,-39.2 -25.6,-99.9 -24.8,-115.9 0.8,-16 11.2,-33.6 8,-39.2 -3.2,-5.6 -10.5,-24 -8,-30.4 2.4,-6.4 -4.3,-46.9 -2.4,-83.9 2,-37.6 -11.6,-48 -11.6,-48 l -10.9,-9.5 c 0,0 -9.9,-4.8 -13.5,-7.2 -3.6,-2.4 -12.8,-4.9 -12.8,-4.9 -17.4,-0.6 -17.3,-1.1 -20.7,-1.6 -7.2,-1.2 -8.2,7.1 -8.2,7.1 0,0 -1.9,-6.4 -17.1,-5.6 -15.2,0.8 -12.2,9.9 -11.4,15.5 0.8,5.6 4.6,31 4.6,37.4 0,6.4 2.8,14.8 0,20 -4.2,7.7 -2,14.8 -5.6,26 -3.6,11.2 -2.4,103.1 -0.4,108.7 2,5.6 -4.8,14 -5.6,17.6 -0.8,3.6 4,26.4 4.8,34.8 0.8,8.4 1.2,23.2 -10,59.9 -11.2,36.8 -45.4,174.2 -48.8,207.8 -3.3,33.6 4,99.9 2.4,114.3 -1.6,14.4 4,68.7 0,91.9 -4,23.2 -18.4,75.1 -27.2,123.1 -8.8,48 -16,83.9 -16,140.7 10.8,7.2 12.9,11.4 19.2,18 6.3,6.5 58.4,-36.4 80.3,-56 22,-19.6 43,-35.7 52.3,-37.5 9.3,-1.8 11.1,3.6 13.8,7.2 2.7,3.6 34.2,52.5 36.3,53.7 7,-1.1 65.2,-13.4 79.3,-25.7"
   id="path4"
   style="fill:#ffffff;fill-opacity:1" />
		<path
   d="m 729.2,1108 c 2.7,4.9 40.2,1.5 70.1,-2.7 10.4,-1.5 18.9,-3.8 25.8,-1.8 54.6,15.5 164.7,79.4 192.4,76.4 6.6,3 12.2,7 12.2,7 l 10,-16.4 -6.4,-4.4 18,-36.4 -2.4,-53.5 5.2,-4 6.8,-49.6 -7.6,-8.8 -2.4,-59.6 -12.4,-3.2 c 0,0 3.2,-13.2 -12.4,-18.8 -19.6,21.2 -94.9,35.4 -94.9,35.4 L 891,910.1 c 0,0 -6,-4.2 -13.2,-2.4 0,0 -96.5,79.1 -113.9,91.7 -17.4,12.6 -16.2,-7.8 -32.8,-15.6 -13,-13.8 6.4,-133.7 6.4,-133.7 l -12,-4.2 -6.6,8.4 c 0,0 -18.9,-7 -18.9,7.2 0,27 -21.9,17.4 -27.3,23.4 -5.4,6 0.6,25.2 0.6,27.6 0,2.4 -4.8,-0.6 -7.2,9.6 -2.5,10.2 3.7,27 3.7,31.2 0,4.2 -4.2,2.4 -3.6,19.8 0.6,17.4 42.6,65.3 44.4,68.9 1.8,3.6 -4.8,13.8 -6,19.2 -1.2,5.4 7.8,16.8 7.8,21.6 0,4.8 -8.4,13.2 -7.8,23.4 0.6,10.2 16.8,22.8 30,30.6 0,0 -10.8,-28.2 -5.4,-28.8"
   id="path5"
   style="fill:#ffffff;fill-opacity:1" />
		<path
   d="m 753.2,1738.9 c -4.8,-3.2 -1.6,-20 -5.6,-24 -4,-4 -6.8,-8 -3.2,-8 3.6,0 30,5.6 35.6,4.4 5.6,-1.2 10.8,3.6 10.4,4.8 -0.4,1.2 0.4,9.2 4.8,13.2 4.4,4 16.8,7.6 22,9.6 5.2,2 4,8.4 -5.2,8.4 -9.2,0 -31.6,1.2 -37.6,0 -6,-1.2 -21.2,-5.2 -21.2,-6.8"
   id="path6"
   style="fill:#ffffff;fill-opacity:1" />
		<path
   d="m 842.1,50.3 c 1.8,-3 10.6,-8.2 13,-12.4 2.4,-4.2 14.4,-10.8 16.2,-12.6 1.8,-1.8 12,-4.2 15.6,-7.8 3.6,-3.6 7.8,-1.2 10.8,-4.2 3,-3 8.4,-7.8 15.6,-5.4 7.2,2.4 15.6,8.4 16.2,10.2 0.6,1.8 0.6,9.6 0,18.6 -0.6,9 -4.2,33 -4.8,40.2 -0.6,7.2 -4.8,16.2 -9.6,27 -4.8,10.8 -21.6,51 -21.6,61.7 0,10.8 1.2,31.8 -0.6,37.2 -1.8,5.4 -9.6,18 -9,25.2 0.6,7.2 1.7,71.3 3.2,99.5 1.6,28.8 0.8,68.9 0,119.3 -0.8,50.4 0.8,91.7 0,99.5 -0.8,7.8 1.6,34.2 5.8,56.4 4.2,22.2 -4.2,48 -2.4,67.1 1.8,19.2 -4.3,71.9 -3.4,89.9 1,18 -5,60 -3.8,86.3 1.2,26.4 1.2,48.6 1.2,51 l 5.9,3.4 c 0,-2.4 -2.5,-28.1 -3.7,-54.5 -1.2,-26.4 3.6,-68.2 2.6,-86.2 -1,-18 5.2,-70.7 3.4,-89.9 -1.8,-19.2 8.1,-44.6 3.9,-66.7 -4.2,-22.2 -8.1,-49 -7.3,-56.8 0.8,-7.8 -0.8,-49.2 0,-99.5 0.8,-50.4 1.6,-90.5 0,-119.3 -1.5,-28.2 -2.6,-92.3 -3.2,-99.5 -0.6,-7.2 7.2,-19.8 9,-25.2 1.8,-5.4 0.6,-26.4 0.6,-37.2 0,-10.8 16.8,-50.9 21.6,-61.7 4.8,-10.8 9,-19.8 9.6,-27 0.6,-7.2 4.2,-31.2 4.8,-40.2 0.6,-9 0.6,-16.8 0,-18.6 -0.6,-1.8 -7.5,-7.8 -15.6,-10.7 -9.9,-3.6 -12.7,-0.9 -15.9,2 -5.4,5 -9.7,1.2 -12.3,5.1 -4.4,6.5 -10.8,3.4 -14.7,7.2 -5.1,4.9 -15.4,9.7 -17.8,13.9 -2.4,4.2 -9.5,8.8 -11.3,11.8 l -2,2.9"
   id="path7"
   style="fill:#ffffff;fill-opacity:1" />
		<path
   d="m 901.9,1688.5 c 5.7,-9 -1.8,-16.4 -1.8,-16.4 l 5.9,-10.3 -7.9,-10.5 1,-21.8 c 0,0 -8.3,13.6 -13.4,9.9 -5,-3.7 -1.3,-13.4 6,-19.6 11.4,-9.6 4.8,-20.4 4.8,-20.4 0,0 0.3,7.5 -9.6,6.8 -4.1,-5.6 3.8,-20.8 -1.9,-32.2 -3.4,15.7 -19.9,9.5 -22.3,18.4 -4,15.4 -8.8,11.6 -8.8,11.6 0,0 -1,-9.8 -5.3,-11.4 1.2,6.8 -10.7,25.8 -10.7,25.8 0,0 -3.7,-3.3 -3,-9 -7.6,5.4 -12.8,21.3 -12.8,21.3 0,0 -1.7,-9.2 -13.5,-13.5 1.8,20.2 -11.9,27.3 -16.3,27.7 -4.4,0.4 -5.2,-11.3 -18.7,-14.7 4.4,4 3,17.9 -0.5,23.5 0,0 -3.3,-7.9 -14.5,-7.3 4.8,8.4 5.1,16.6 0.2,25.5 4.1,-5.7 7.1,-15.6 2.2,-24 8.8,0.5 12,8.1 12,8.1 3.5,-5.7 7.2,-19.3 2.8,-23.3 11.6,3.6 11.9,14.9 16.3,14.5 4.4,-0.4 20.2,-10.2 17.2,-27.7 10.9,4.2 12.4,15.2 12.4,15.2 0,0 5.6,-18 12,-22.8 -0.8,5.7 4,8.9 4,8.9 0,0 12.8,-18.8 11.6,-25.6 3.2,1.6 3.6,10.8 3.6,10.8 0,0 5.6,4.3 9.6,-11.1 2.3,-8.9 18.9,-2.7 22.3,-18.4 3.3,10.4 -4.1,26.4 0,32 10.1,2.2 11.2,-4 11.2,-4 0,0 3.6,6.8 -7.8,16.4 -7.4,6.2 -9.6,16.2 -3.2,20.7 5.1,3.6 12.3,-6.3 12.3,-6.3 l -0.4,16.6 7.2,10.6 -6,10.8 c 0.2,-0.4 7.4,7.6 3.8,15.2"
   id="path8"
   style="fill:#ffffff;fill-opacity:1" />
		<path
   d="m 743,1123.6 c -1.8,2.4 10.1,29.1 21.9,40.6 10.4,10.1 29.1,-43.6 25.5,-46.6 -3.6,-3 -45.6,3.6 -47.4,6"
   id="path9"
   style="fill:#ffffff;fill-opacity:1" />
		<path
   d="m 764.9,1183.5 c -6.4,9.2 -9.6,45.6 -1.5,46.8 8.1,1.2 9.3,-23.1 33.6,-26.4 8.4,-1.1 6.6,-33 -9.6,-32.4 -16.2,0.6 -16.1,2.9 -22.5,12"
   id="path10"
   style="fill:#ffffff;fill-opacity:1" />
		<path
   d="m 773,1695.2 c 3,4.3 1.7,-10.2 8.5,-11.7 6.8,-1.5 13.4,5.1 14,3 0.6,-2.1 -2.4,14.7 -2.4,14.7 0,0 2.7,7.1 3.6,3.2 0.9,-3.9 4.5,-8.7 6.9,-13.1 2.4,-4.3 7.4,-22.2 13.2,-27.6 5.8,-5.4 -2.1,-7.2 -4.8,-7.8 -2.7,-0.6 -6.3,4.8 -7.2,7.8 -0.9,3 -2.1,3.6 -8.4,5.4 -6.3,1.8 -16.5,5.7 -21.6,12.9 -5.1,7.2 -5.1,8.4 -1.8,13.2"
   id="path11"
   style="fill:#ffffff;fill-opacity:1" />
		<path
   d="m 825.5,1700.3 c 5.8,-2 20.7,-6 24.9,-4.2 4.2,1.8 6.9,-11 7.5,-17.8 0.6,-6.8 -2.1,-15.2 -9.6,-9.2 -7.5,6 -16.2,13 -19.8,19.4 -3.6,6.4 -8.3,13.6 -3,11.8"
   id="path12"
   style="fill:#ffffff;fill-opacity:1" />
		<path
   d="m 831.9,1747.8 c 13.9,-3.3 19.6,5.7 24.4,0 4.8,-5.7 11.8,-8.2 10.8,-15 -0.7,-5 -6.5,-6.9 0.3,-15.5 6.8,-8.6 -2,-19.8 -8.8,-11.8 -6.8,8 0.8,5.3 -4.8,16.7 -5.6,11.4 -8.9,23 -13.4,17.8 -4.5,-5.1 -15.8,9.5 -8.5,7.8"
   id="path13"
   style="fill:#ffffff;fill-opacity:1" />
		<path
   d="m 702,1765 c 22.4,0.6 28.8,-0.2 40.8,3.6 19.3,6.2 17,14.2 27.9,14.4 -11.5,-5.5 -9.7,-25.2 5.9,-15 7.6,5 27.5,20.1 46.2,37 2,1.8 -4.8,25.4 -4.5,25.7 0.3,0.2 7.3,-22.3 15.5,-18.2 22.7,11.7 34.9,19.2 48.8,16.5 9.3,-5.8 2.5,-8.2 -4.1,-9.4 -2.4,-0.4 -9.7,-2.4 -15.4,-6.2 0.1,1.4 10.4,-13.5 9.7,-15.3 -3.5,5.9 -13,12.4 -17.1,11.6 -16.1,-8.3 -35.6,-20.8 -49.7,-37 -0.2,-0.3 17.5,-11 17.2,-11.2 -0.3,-0.2 -21.7,6.9 -22,6.6 -13.8,-12.6 -54.5,-13 -80.6,-37.6 -11.8,-11.1 -18.9,3 -8.7,9 10.2,6 14.8,18.8 -8.8,13.8 -13.5,-3.1 -24,11.1 -1.1,11.7"
   id="path14"
   style="fill:#ffffff;fill-opacity:1" />
		<path
   d="m 1258.6,1722.2 c -95.9,4 -119.3,-29.1 -149.3,-49.5 0,0 8.4,-28.2 28.2,-24.6 19.8,3.6 76.7,52.4 121.1,52.4 9.5,0.1 0,21.7 0,21.7"
   id="path15"
   style="fill:#ffffff;fill-opacity:1" />
		<path
   d="m 1142.3,1627.8 c 23.5,13.5 93.5,51 113.9,56.1 20.4,5.1 43.2,22.6 42,38.7 -1.2,16.1 -15.6,-0.7 -19.8,10.1 -4.2,10.8 126.5,64.1 169.7,80.9 43.2,16.8 49.4,33.2 60.9,42.8 11.5,9.6 17.2,-12 17.2,-14.4 0,-2.4 -40,-25.2 -53.2,-39.6 4.8,-4 50.3,31.6 56.3,32 6,0.4 -30.4,-29.2 -50,-40.8 -19.6,-11.6 -79.3,-66.3 -94.7,-80.7 -15.4,-14.4 -34.8,-7.6 -24.4,0.8 10.4,8.4 40.4,61.2 14.4,29.6 -26,-31.6 -47.8,-50.8 -72.9,-61 -25.1,-10.2 -79.7,-33.6 -101.9,-46.2 -22.2,-12.5 -65.7,-13 -57.5,-8.3"
   id="path16"
   style="fill:#ffffff;fill-opacity:1" />
		<path
   d="m 258.6,1886.7 c 15.9,-11 94.1,-59.3 115.1,-68.9 21,-9.6 77.9,-22.2 105.5,-46.2 27.6,-24 -4.2,-27 -12,-21 -7.8,6 -33,31.8 -70.7,39.6 -37.8,7.8 9.6,-12.6 27.6,-21.6 18,-9 52.8,-25.2 59.4,-43.2 6.6,-18 -15,-38.4 -30.6,-30 -15.6,8.4 -48.6,43.2 -83.3,70.1 -34.8,27 -93.5,69.5 -110.9,83.9 -17.5,14.5 -5.8,41.3 -0.1,37.3"
   id="path17"
   style="fill:#ffffff;fill-opacity:1" />
		<path
   d="m 747.6,969.1 c 1.5,-30.6 32.7,-199.8 53.4,-231.8 20.6,-32 -1.4,-43.2 0,-60.7 1.4,-17.6 -11.3,-94.3 -10.5,-102.3 0.8,-8 -10.4,-87.9 8.8,-135.9 19.2,-48 29.6,-132.7 45.2,-169.5 15.6,-36.8 0.4,-62.4 0,-73.5 -0.4,-11.2 2,-75.1 0,-86.3 -2,-11.2 -4.8,-40 -1.8,-47.8 3,-7.8 3.7,-1.5 7.5,0.3 1.6,0.8 2.8,-0.3 3.8,-2.2 1.5,-2.7 0.4,-9 4.9,-11.3 4.3,-2.2 4.1,4.8 5.2,8.8 0.7,2.7 2.9,4.2 4.3,0.2 3.6,-10.2 -1.2,-18 5.4,-23.4 4.7,-3.8 3.9,9.4 4.7,16.5 0.3,2.9 5.1,-0.4 5.3,-3.1 0.6,-9.6 -1.2,-16.7 6.8,-17.5 4.3,-0.4 1.4,14.7 3.6,22.8 0.9,3.1 0.8,5.1 3,2.4 4.7,-5.8 3.9,-21.4 5.2,-30.2 1,-7 7.4,-5.2 11,-4.6 3.2,0.6 7.1,2.7 8.1,7.6 2.2,11 -5.5,25.9 -8.1,42.7 -2.9,19.1 -4.2,18.6 -17.4,50.4 -13.2,31.8 -9,49.8 -16.2,74.3 -7.2,24.6 -24,90.5 -25.2,106.1 -1.2,15.6 -23.4,137.9 -26.4,182.2 -3,44.4 9,89.3 10.8,103.1 1.8,13.8 -27.6,35.4 -13.8,37.2 13.8,1.8 30,4.2 37.8,24 7.8,19.8 16.2,63 13.2,74.3 -3,11.4 -24,119.9 -27,137.3 -3.1,17.4 -103.7,150.3 -101.6,109.9"
   id="path18"
   style="fill:#ffffff;fill-opacity:1" />
		<path
   d="m 929.9,579.9 c 21.2,-14.6 18.7,-54 27.1,-46.8 8.4,7.2 -1.2,7.2 0,33.6 1.2,26.4 13.2,57.6 15.6,68.3 2.4,10.8 0,20.4 0,44.4 0,24 21.6,107.9 21.6,136.7 0,28.8 1.2,94.7 0,110.3 -1.2,15.6 -32.4,25.2 -46.8,25.2 -14.4,0 -34.8,-22.8 -42,-54.6 -7.2,-31.8 -7.2,-91.7 -7.2,-98.9 0,-7.2 34.5,86.3 31.6,56.4 C 927,824.5 903,791 905.4,761 c 2.5,-30.1 -8.6,-158.4 24.5,-181.1"
   id="path19"
   style="fill:#ffffff;fill-opacity:1" />
		<path
   d="m 844.3,25.3 c -1.3,-7.8 -6,-31.2 0,-32.4 6,-1.2 10.2,3 11.4,16.2 1.2,13.3 -10.6,21 -11.4,16.2"
   id="path20"
   style="fill:#ffffff;fill-opacity:1" />
		<path
   d="m 867.1,7.3 c 0.6,-7.8 -3.4,-24 2.8,-19.8 6.2,4.2 5.8,15 5.8,19.8 0.1,4.9 -8.6,0 -8.6,0"
   id="path21"
   style="fill:#ffffff;fill-opacity:1" />
		<path
   d="m 837.2,1633.1 c 4.9,4.2 7.5,7.2 12.4,9.2 4.9,2 10.3,2.1 5.9,-0.9 -4.4,-2.9 -28.9,-17.3 -18.3,-8.3"
   id="path22"
   style="fill:#ffffff;fill-opacity:1" />
		<path
   d="m 1019.8,1583 c 21.6,17.5 44.8,69.5 60.8,75.9 16,6.4 9.6,22.9 8,26.3 -1.6,3.3 -33.6,2.5 -54.4,3.3 -20.8,0.8 -15.2,-8.8 -14.4,-28 0.8,-19.2 -19.2,-37.6 -24.8,-47.2 -5.6,-9.5 8,-43.9 24.8,-30.3"
   id="path23"
   style="fill:#ffffff;fill-opacity:1" />
		<path
   d="m 243.2,1900.3 c 1.3,12.4 -19.7,45 -25.6,46.8 -14.5,4.5 -20.4,17.5 -24.4,21.1 -4,3.6 -0.3,-10.7 7.7,-18.3 8,-7.6 3.1,-5.6 3.1,-15.2 0,-9.6 -7.6,-7.2 -13.6,-6 -6,1.2 -8.4,3.4 -10.6,8.3 -1.3,3.1 -6.1,0.9 -3.7,-3.9 1.6,-3.2 -1.2,-4.8 -6.7,-6.1 -4.7,-1.2 -16.6,5.7 -16.6,2.5 0,-3.2 10.8,-11.6 8.4,-17.2 -2.4,-5.6 0,-0.8 4,-14 4,-13.2 7.6,-28 10.8,-30.4 3.2,-2.4 18.6,0.5 15.5,15.3 -0.4,2.1 -24.9,14.8 -1.4,21.8 27.2,8 5,-15.6 9.1,-22.2 3,-4.7 5.8,-12.7 5.9,-18.5 0.1,-4 1.3,-6.8 18.9,-2.8 17.6,4 0.7,18 5.9,23.6 5.4,5.6 12.3,5.8 13.3,15.2"
   id="path24"
   style="fill:#ffffff;fill-opacity:1" />
		<path
   d="m 883.5,1190.5 c -3.3,0 -6,5.7 -6,12.8 0,7.1 2.7,12.8 6,12.8 3.3,0 6,-5.7 6,-12.8 0,-7 -2.7,-12.8 -6,-12.8 m -77.5,277 c -4.4,0 -8,5.4 -8,12 0,6.6 3.6,12 8,12 4.4,0 8,-5.4 8,-12 0,-6.6 -3.6,-12 -8,-12 m 188.2,81.5 c -21.6,28.4 -30,48.8 -62.3,42.8 -32.4,-6 -52.9,-19.2 -46.8,-63.6 6.1,-44.4 3.7,-103.1 6.1,-127.1 1.9,-18.9 -1.5,-108.7 -1.8,-150.8 -0.1,-10.5 -2.1,-12 -4.3,2.1 -2.3,15.6 -7.1,86.3 -5.9,130.7 1.2,44.4 -6.5,150.6 -6.8,165.8 -0.4,15.2 4,23.6 -9,27.2 -13,3.6 -11.4,10.8 -31.3,20.4 -20,9.6 -32,36.5 -47.6,28.4 -15.6,-8.1 -22.1,9.9 -28.5,13.5 -6.3,3.6 1.5,25.8 -3.9,28.5 -22.7,11.3 -49.6,18.3 -74.3,12.7 -24.8,-5.7 -15.2,-2.2 -35.2,12.9 -20,15.1 -119.9,50.2 -144.7,42.2 -0.8,-20 4.8,-31.2 22.4,-37.6 17.6,-6.4 77.5,-24 104.7,-35.2 27.2,-11.2 53.6,-15.2 69.6,-25.6 16,-10.4 -25.6,-4.8 -62.3,8 -36.8,12.8 -106.3,40.8 -118.3,44 -12,3.2 -31.3,2.5 -16.1,-8.7 15.3,-11.2 57.6,-32 75.2,-32 17.6,0 23.2,-31.6 86.3,-33.6 16,-0.5 27.5,-12.8 45.6,-25.6 19.6,-13.8 48,-35.2 57.9,-63.2 5.7,-15.9 2.4,-11.4 -3.7,-2.7 -4.7,6.7 -41.3,48.1 -52.9,48.9 -11.6,0.8 -7,-10.4 4.4,-31.4 11.4,-21 15.8,-33.6 20.6,-35.4 4.8,-1.8 21.4,22.8 14.2,-10.2 -4.1,-18.9 -4.7,-38.2 -3.3,-41.5 1.4,-3.3 36,-18.4 34.5,-21.7 -1.1,-2.5 -31.4,13.2 -33.1,10.9 -1.7,-2.2 0.4,-15.3 3.2,-19.4 2.8,-4.1 31.7,-12.4 31.3,-15.5 -0.5,-4.3 -28.3,6.5 -30.1,3.7 -1.8,-2.9 1.3,-1.2 2.4,-7.2 0.6,-3.2 -2.3,-6.6 1.7,-8.8 4,-2.2 27.2,-13.5 26.9,-17.1 -0.3,-3.6 -22.4,6.8 -25.8,4.9 -3.5,-1.9 5.7,-20 7.3,-41.8 1.7,-23.9 -3,-36.9 22.4,-71.9 0.8,-1 4,-3.1 3.6,1.5 -0.7,7.7 -1.5,20.6 8.4,21.3 15.9,1.2 13.5,28.1 -0.9,46.2 -15.5,19.5 23.1,38.7 23.1,38.7 2.3,-14.3 -6.5,-44.1 2,-56.1 8.5,-12 45.2,2.4 53.2,-14.4 8,-16.8 -42.5,-5.4 -50.8,-21 -8.3,-15.6 -19.9,-56.9 10.5,-55.1 30.4,1.8 14.8,-9 14.8,-9 0,0 -35,-18 -27.7,-27.6 7.3,-9.6 42.8,-6.6 44.2,-22.2 1.4,-15.6 -74.6,-22.8 -44.2,-39 30.4,-16.1 69.5,10.8 66,16.8 -3.5,6 15.6,12 26.4,22.2 10.8,10.2 8.4,15 6,58.8 -2.4,43.8 -15.6,49.8 14.4,96.5 30,46.7 40.8,38.4 32.4,70.7 -8.4,32.4 -23.3,36 2.8,58.8 26.1,22.8 10.4,24 17.6,43.2 7.1,19.3 31.1,21.3 9.5,49.7"
   id="path25"
   style="fill:#ffffff;fill-opacity:1" />
		<path
   d="m 884.1,3.6 c -1.2,-5.3 -1.4,-13.2 1.7,-15.3 3.1,-2.1 6.9,8.1 6.4,15.7 -0.4,7.7 -7.3,2.9 -8.1,-0.4"
   id="path26"
   style="fill:#ffffff;fill-opacity:1" />
		<path
   d="m 900.7,0.9 c -0.8,-3.5 -1,-8.7 1.1,-10 2.1,-1.4 4.5,5.3 4.2,10.3 -0.2,5 -4.8,1.8 -5.3,-0.3"
   id="path27"
   style="fill:#ffffff;fill-opacity:1" />
		<path
   d="m 1562.2,1917.5 c -0.1,-2.6 0,-4.7 -0.1,-6.4 -0.1,-6.2 -0.7,-8.4 -6.3,-18.8 -7.2,-13.2 -16.4,-22.8 -8.4,-25.6 8,-2.8 -16.8,-12.4 -20.8,-2.4 -4,10 -6.4,19.2 5.6,29.6 12,10.4 16.8,27.6 24,30.8 7.2,3.2 6.1,-2 6,-7.2"
   id="path28"
   style="fill:#ffffff;fill-opacity:1" />
		<path
   d="m 1562.3,1859.9 c 11.2,16.9 28.7,4.4 31.1,11.2 2.4,6.8 5.6,14.4 10.4,4.4 4.8,-10 4,-22.8 -4.8,-28 -8.8,-5.2 -43.2,-3.2 -46.4,-5.2 -3.3,-1.9 4.6,10 9.7,17.6"
   id="path29"
   style="fill:#ffffff;fill-opacity:1" />
		<path
   d="m 940.9,475.6 c 0,-43.5 -33.2,-213.2 -37.7,-267.4 -1.6,-19.4 4.1,-46.6 8.7,-64.7 2.2,-8.7 8,-4.9 5.1,5.9 -3,10.8 -7.7,46.2 -6,62.9 1.7,16.8 29.6,138.5 35.6,158.9 4,13.5 9.7,47.7 8.3,73.6 -0.7,13.4 15.4,30.7 17.2,16.9 1.7,-12.7 -3.6,-78.3 2.4,-59.9 20.3,62.3 9,123.4 3,130.4 -6.2,7.2 -4.2,-39.3 -13.2,-43.8 -6.3,-3.1 -23.4,2.8 -23.4,-12.8"
   id="path30"
   style="fill:#ffffff;fill-opacity:1" />
		<path
   d="m 874.2,1028.4 145.6,-7.4 v 13.6 l -130.8,9.1 105.7,13.3 18.6,13.6 c 0,0 -103.4,-4 -148.5,-5.7 52,7.5 156.8,24.8 155,41.7 -19.1,-5.6 -102.6,-15.8 -150.7,-21.3 l 144.2,46.9 v 19.2 l -173.4,-61.1 -0.5,1.3 c 47.1,28.3 142.9,57.4 167.9,72.3 4.5,2.7 2.5,6.2 2,7.8 -16.2,-1.9 -135.7,-55.2 -172.8,-72 v 0 c -0.6,-0.3 -1.3,-0.6 -1.9,-0.8 -4.2,-1.8 -14.9,-5.6 -27.4,-4.5 -19.3,1.7 -83.5,8.4 -83.5,8.4 l -6,8.4 -6,-10.8 12,-12 -12,-23.4 6,-19 -41.4,-65.9 2,-13.6 48.8,63.1 7.1,-10.8 -57.5,-64.3 3.2,-18 71.5,75.1 20.6,-7.2 c 0.6,-1.8 3,-4.1 8,-7 23.4,-13.3 94.9,-75.4 97.3,-76.2 l 8.8,17 -80.7,62 18.1,13.3 c 38,-22.4 73.1,-67 73.1,-67 0,0 6.2,-1.2 9.5,5.1 3.9,14.9 -39.4,45.1 -55.8,56 61.5,-19.1 162.8,-56 162.8,-56 0,0 10.5,5.6 24.1,20.8 -3.8,18.7 -105.2,43.4 -163,56"
   id="path31"
   style="fill:#ffffff;fill-opacity:1" />
		<path
   d="m 717.4,959.8 -36.1,-34.2 v -31.2 l 24,-11.6 1.6,-18 14,-4.4 -2.4,33.6 -23.6,15.2 26,33.6 -3.5,17"
   id="path32"
   style="fill:#ffffff;fill-opacity:1" />
		<path
   d="m 888.5,-54.1 c -3.5,-2.2 -8.5,1.3 -11.1,3.9 0.7,2.7 1.5,5.4 2.2,8.1 5.6,-2 12.4,-9.8 8.9,-12 m -20.3,21.6 c 1.5,1.3 11.4,-0.1 11,-1.5 -0.5,-1.7 -1,-3.8 -1.5,-5.5 -1.9,0.7 -12.1,4.7 -9.5,7 m 11.8,-7.9 c 0.1,0.3 2.8,8.3 1.7,8.7 -3.4,1.2 -16.4,3.5 -16.2,-1.9 0.1,-3.3 11.3,-7.3 11.9,-7.5 -0.1,-0.3 -1.4,-5.1 -1.9,-7.1 -1.1,1.1 -2.1,2.4 -3,3.1 -1.6,1.2 -3.4,2 -5.7,2.2 -2.3,0.2 -3.3,-0.8 -4.5,-2.1 0.4,-0.3 0.9,0.1 1.6,0.4 5.8,2.1 8.2,-2.8 11,-5.6 -0.7,-2.8 -1.5,-5.6 -2.2,-8.4 -3.8,0.6 -7.2,5.6 -8.8,7.7 -0.9,1.2 -1.2,1.5 -0.7,-0.4 1.8,-6.9 8.8,-10.1 8.8,-10.1 1.4,-0.6 2.5,0.3 2.7,0.7 0.8,2.8 1.5,5.6 2.3,8.5 0.4,-0.4 6.8,-9.2 13.4,-5.5 6.5,3.6 -2.3,14 -10.4,17.3"
   id="path33"
   style="fill:#ffffff;fill-opacity:1" />
	</g>
</g><rect
       style="fill:#ffffff;fill-opacity:1;stroke-width:0.0675088"
       id="rect13"
       width="110.00001"
       height="0.42043108"
       x="19.40415"
       y="31.829098" /><rect
       style="fill:#a52a2a;fill-opacity:1;stroke-width:0.298363"
       id="rect2"
       width="16.915047"
       height="16.915047"
       x="-0.35194534"
       y="30.904751"
       rx="2" /><path
       d="m -1.630347,15.854001 c -0.090145,0.01758 -0.1708583,0.06268 -0.2376157,0.133746 -0.07883,0.08344 -0.1237134,0.186844 -0.1316344,0.303422 l -0.0023,0.03353 -0.02828,0.0017 c -0.061102,0.0028 -0.1365359,0.02634 -0.1904713,0.05908 -0.2296941,0.138535 -0.3013584,0.445951 -0.158033,0.679508 0.024522,0.03992 0.085997,0.106996 0.1210712,0.13215 0.069398,0.0491 0.1685962,0.08424 0.2398813,0.08424 h 0.017729 v 0.479078 0.479091 h -0.4518462 -0.4522255 l -0.00454,-0.04511 c -0.00263,-0.02436 -0.00715,-0.0555 -0.010196,-0.06867 -0.026033,-0.108194 -0.084497,-0.202015 -0.1663445,-0.267094 -0.2594903,-0.206009 -0.6276093,-0.06947 -0.7105849,0.2631 -0.00376,0.01516 -0.00906,0.04831 -0.011304,0.07266 l -0.00447,0.04512 h -0.017722 c -0.044506,0 -0.1188092,0.01955 -0.169351,0.04432 -0.130876,0.06468 -0.2225285,0.186446 -0.2557209,0.339755 -0.00867,0.04073 -0.00867,0.149314 0,0.190037 0.021121,0.09781 0.060726,0.174867 0.1248449,0.242738 0.075807,0.08026 0.1670826,0.125763 0.2760845,0.138138 l 0.041868,0.0043 0.00262,0.03712 c 0.00415,0.06387 0.027529,0.144127 0.057329,0.198423 0.079581,0.144123 0.2187582,0.233151 0.3749054,0.239943 0.1953744,0.0084 0.3764165,-0.120572 0.4427973,-0.316202 0.013207,-0.03912 0.024879,-0.102207 0.024879,-0.134144 v -0.02633 h 0.4526034 0.4526018 v 1.435275 c 0,1.364204 -3.27e-4,1.43527 -0.00641,1.43527 -0.022264,0 -0.079962,0.0096 -0.1105124,0.01836 -0.040736,0.01116 -0.1007014,0.04032 -0.136156,0.06588 -0.055063,0.03953 -0.1150363,0.110985 -0.1455871,0.17327 -0.038099,0.07866 -0.05205,0.146921 -0.049032,0.240742 0.0023,0.06589 0.00755,0.09582 0.026772,0.149715 0.061477,0.172874 0.2127236,0.292647 0.3899933,0.308618 0.016966,0.0012 0.03093,0.0036 0.03093,0.0051 0.00906,0.231163 0.1516221,0.414812 0.3601975,0.46392 0.051297,0.01198 0.1312555,0.01239 0.1829285,3.47e-4 0.2002745,-0.04511 0.3439769,-0.21759 0.3605739,-0.432379 l 0.00261,-0.03433 0.030566,-0.0028 c 0.20480246,-0.01795 0.36472216,-0.166084 0.41036036,-0.379683 0.00945,-0.04391 0.011272,-0.132543 0.00341,-0.177659 -0.019602,-0.116138 -0.078449,-0.221537 -0.1629274,-0.291805 -0.075812,-0.06347 -0.1550233,-0.09622 -0.25308676,-0.105391 l -0.029415,-0.0028 v -1.434601 -1.434875 h 0.45260386 0.4526026 v 0.02595 c 0,0.03274 0.011271,0.09502 0.024522,0.133749 0.054693,0.160094 0.184435,0.277472 0.3443542,0.30981 0.043373,0.0092 0.1203166,0.0088 0.1640692,0 0.1108913,-0.02277 0.2119663,-0.08904 0.2787273,-0.183649 0.05205,-0.07386 0.08976,-0.186446 0.08976,-0.267495 v -0.01678 l 0.04263,-0.0047 c 0.1584127,-0.01759 0.29155174,-0.114185 0.36246174,-0.263105 0.03319,-0.07027 0.04488,-0.126559 0.04488,-0.214791 0,-0.06307 -6.38e-4,-0.07146 -0.0117,-0.114983 -0.05017,-0.202407 -0.20744804,-0.341344 -0.40734674,-0.36011 l -0.03092,-0.0027 v -0.01716 c 0,-0.02834 -0.0075,-0.07665 -0.01737,-0.113383 -0.03659,-0.13385 -0.13315,-0.25083 -0.25158,-0.305126 -0.1440761,-0.06548 -0.3013584,-0.05111 -0.4345002,0.04032 -0.053937,0.03713 -0.121068,0.117776 -0.1516187,0.182453 -0.026026,0.0547 -0.04639,0.136542 -0.04639,0.187246 v 0.02633 h -0.4525927 -0.45260456 l 6.566e-4,-0.478293 0.001,-0.47789 0.03207,-0.0024 c 0.32096096,-0.02439 0.51482426,-0.388091 0.36961296,-0.693112 -0.0720375,-0.151756 -0.2202671,-0.25516 -0.37528246,-0.261548 l -0.026414,-0.001 -0.00227,-0.03395 c -0.00786,-0.116178 -0.052793,-0.219578 -0.1316194,-0.30342 -0.067896,-0.07226 -0.1474736,-0.116578 -0.2391258,-0.133746 -0.040734,-0.0072 -0.121452,-0.0072 -0.1606757,0 z"
       fill="#000000"
       stroke="none"
       stroke-width="0.000776103"
       vector-effect="non-scaling-stroke"
       id="path1-5"
       style="fill:#ffffff;fill-opacity:1" /></g></svg>
