<?xml version="1.0" encoding="UTF-8" standalone="no"?>
<svg
   width="400"
   height="400"
   version="1.1"
   id="svg1"
   sodipodi:docname="tau.svg"
   inkscape:version="1.3.2 (091e20ef0f, 2023-11-25)"
   xmlns:inkscape="http://www.inkscape.org/namespaces/inkscape"
   xmlns:sodipodi="http://sodipodi.sourceforge.net/DTD/sodipodi-0.dtd"
   xmlns="http://www.w3.org/2000/svg"
   xmlns:svg="http://www.w3.org/2000/svg">
  <defs
     id="defs1" />
  <sodipodi:namedview
     id="namedview1"
     pagecolor="#505050"
     bordercolor="#eeeeee"
     borderopacity="1"
     inkscape:showpageshadow="0"
     inkscape:pageopacity="0"
     inkscape:pagecheckerboard="0"
     inkscape:deskcolor="#505050"
     inkscape:zoom="1.4142136"
     inkscape:cx="261.98306"
     inkscape:cy="190.21172"
     inkscape:window-width="1447"
     inkscape:window-height="900"
     inkscape:window-x="0"
     inkscape:window-y="0"
     inkscape:window-maximized="0"
     inkscape:current-layer="svg1"
     showgrid="true" />
  <rect
     style="fill:#fffdd0;fill-opacity:1;stroke-width:2.27353"
     id="rect5"
     width="400"
     height="400"
     x="0"
     y="0" />
  <g
     id="g6"
     transform="matrix(1.181798,0,0,1.1332484,-38.142077,-34.591226)">
    <g
       id="g3"
       transform="matrix(1.3560393,0,0,0.89218275,-49.459819,60.98819)">
      <g
         id="g1"
         transform="translate(-14.925633,-14.066875)">
        <path
           d="m 281.71213,99.999998 2.21084,46.901852 h -5.60457 q -1.62179,-12.38914 -4.42614,-17.69854 -4.5711,-8.55475 -12.24187,-12.5364 -7.52169,-4.12987 -19.91067,-4.12987 h -28.1701 v 152.80258 q 0,18.43644 3.98221,23.00874 5.60442,6.19449 17.25597,6.19449 h 6.93231 V 300 h -84.80718 v -5.45715 h 7.07957 q 12.68367,0 17.99307,-7.66942 3.24367,-4.71956 3.24367,-21.53373 V 112.53712 h -24.04117 q -14.01141,0 -19.91066,2.06493 -7.66982,2.80245 -13.12625,10.76687 -5.45715,7.9641 -6.48957,21.53373 h -5.60457 l 2.36034,-46.90186 z"
           id="path1-0"
           style="stroke-width:0.796013" />
      </g>
      <g
         id="g2"
         transform="translate(-14.925633,-13.855424)">
        <path
           d="m 281.71211,100 2.21084,-46.90185 h -5.60457 q -1.62179,12.38914 -4.42614,17.69854 -4.57111,8.55474 -12.24188,12.5364 -7.52169,4.12987 -19.91067,4.12987 H 213.5696 V -65.33962 q 0,-18.43644 3.98221,-23.00874 5.60441,-6.19449 17.25597,-6.19449 h 6.93231 V -100 h -84.80718 v 5.45715 h 7.07957 q 12.68367,0 17.99307,7.66942 3.24367,4.71956 3.24367,21.53373 V 87.46288 h -24.04117 q -14.01141,0 -19.91066,-2.06494 -7.66982,-2.80244 -13.12625,-10.76686 -5.45715,-7.9641 -6.48957,-21.53373 H 116.077 l 2.36035,46.90185 z"
           id="path1-0-9"
           style="stroke-width:0.796013" />
      </g>
    </g>
    <rect
       style="fill:#fffdd0;fill-opacity:1;stroke-width:0.519198"
       id="rect6"
       width="52.827232"
       height="156.35878"
       x="173.08478"
       y="-29.70352" />
  </g>
</svg>
